<?xml version="1.0" encoding="UTF-8"?>
<!-- Generated by Pixelmator Pro 3.6.3 -->
<svg width="17" height="16" viewBox="0 0 17 16" xmlns="http://www.w3.org/2000/svg">
    <path id="SVG-Export-4" fill="#000000" stroke="none" d="M 7.002442 2.381234 L 7.598288 1.759721 C 8.025506 1.262524 8.847635 1.15864 9.371331 1.720901 L 15.682045 8.496633 C 16.202101 9.054998 16.066484 9.952214 15.404618 10.331929 L 9.093904 13.952271 C 8.659023 14.201733 8.165145 14.141075 7.809056 13.884144 L 1.595648 10.319605 C 0.933782 9.939892 0.798165 9.042675 1.318221 8.484309 C 1.557681 8.227198 1.94296 8.169498 2.247234 8.345181 L 7.809056 11.545265 L 7.809056 9.141451 L 4.180093 7.066846 C 3.667635 6.770391 3.563369 6.074685 3.966324 5.641081 L 3.96709 5.640251 L 3.967665 5.639613 C 4.260495 5.325795 4.731136 5.255539 5.102849 5.470155 L 7.809056 7.003379 L 7.809056 4.68308 L 6.948106 4.141315 C 6.420707 3.836752 5.944644 3.51693 6.359731 3.071321 L 7.002442 2.381234 Z"/>
</svg>
